HIERARCHY
ROOT Hips
{
	OFFSET 0.00000 0.00000 0.00000
	CHANNELS 6 Xposition Yposition Zposition Zrotation Yrotation Xrotation 
	JOINT LHipJoint
	{
		OFFSET 0 0 0
		CHANNELS 3 Zrotation Yrotation Xrotation
		JOINT LeftHip
		{
			OFFSET 1.58895 -1.83665 0.71753
			CHANNELS 3 Zrotation Yrotation Xrotation
			JOINT LeftKnee
			{
				OFFSET 2.50528 -6.88321 0.00000
				CHANNELS 3 Zrotation Yrotation Xrotation
				JOINT LeftAnkle
				{
					OFFSET 2.63244 -7.23257 0.00000
					CHANNELS 3 Zrotation Yrotation Xrotation
					JOINT LeftToe
					{
						OFFSET 0.23691 -0.65090 1.72750
						CHANNELS 3 Zrotation Yrotation Xrotation
						End Site
						{
							OFFSET 0.00000 -0.00000 0.92561
						}
					}
				}
			}
		}
	}
	JOINT RHipJoint
	{
		OFFSET 0 0 0
		CHANNELS 3 Zrotation Yrotation Xrotation
		JOINT RightHip
		{
			OFFSET -1.51435 -1.83665 0.71753
			CHANNELS 3 Zrotation Yrotation Xrotation
			JOINT RightKnee
			{
				OFFSET -2.54551 -6.99375 0.00000
				CHANNELS 3 Zrotation Yrotation Xrotation
				JOINT RightAnkle
				{
					OFFSET -2.66027 -7.30903 0.00000
					CHANNELS 3 Zrotation Yrotation Xrotation
					JOINT RightToe
					{
						OFFSET -0.22981 -0.63138 2.03959
						CHANNELS 3 Zrotation Yrotation Xrotation
						End Site
						{
							OFFSET -0.00000 -0.00000 1.07060
						}
					}
				}
			}
		}
	}
	JOINT lowerback
	{
		OFFSET 0 0 0
		CHANNELS 3 Zrotation Yrotation Xrotation
		JOINT Chest
		{
			OFFSET -0.02651 1.86275 -0.11152
			CHANNELS 3 Zrotation Yrotation Xrotation
			JOINT Chest2
			{
				OFFSET 0.01019 1.86224 0.04087
				CHANNELS 3 Zrotation Yrotation Xrotation
				JOINT lowerneck
				{
					OFFSET 0 0 0
					CHANNELS 3 Zrotation Yrotation Xrotation
					JOINT Neck
					{
						OFFSET -0.01926 1.80512 0.08867
						CHANNELS 3 Zrotation Yrotation Xrotation
						JOINT Head
						{
							OFFSET 0.05516 1.76451 -0.38475
							CHANNELS 3 Zrotation Yrotation Xrotation
							End Site
							{
								OFFSET 0.01592 1.82587 -0.14001
							}
						}
					}
				}
				JOINT LeftCollar
				{
					OFFSET 0 0 0
					CHANNELS 3 Zrotation Yrotation Xrotation
					JOINT LeftShoulder
					{
						OFFSET 3.47116 1.51376 0.14491
CHANNELS 3 Zrotation Xrotation Yrotation
						JOINT LeftElbow
						{
OFFSET 0 -4.780950 0.000000
CHANNELS 3 Zrotation Xrotation Yrotation
							JOINT LeftWrist
							{
OFFSET 0 -3.586150 -0.000000
CHANNELS 3 Zrotation Xrotation Yrotation
								JOINT lhand
								{
									OFFSET 0 0 0
CHANNELS 3 Zrotation Xrotation Yrotation
									JOINT LFingers
									{
OFFSET 0 -0.659810 0.000000
CHANNELS 3 Zrotation Xrotation Yrotation
										End Site
										{
OFFSET 0 -0.531960 0.000000
										}
									}
								}
								JOINT LThumb
								{
OFFSET 0 0.000000 0.000000
CHANNELS 3 Zrotation Xrotation Yrotation
									End Site
									{
OFFSET 0 -0.540080 0.540080
									}
								}
							}
						}
					}
				}
				JOINT RightCollar
				{
					OFFSET 0 0 0
					CHANNELS 3 Zrotation Yrotation Xrotation
					JOINT RightShoulder
					{
						OFFSET -3.31725 1.61216 0.35156
CHANNELS 3 Zrotation Xrotation Yrotation
						JOINT RightElbow
						{
OFFSET 0 -4.489130 0.000000
CHANNELS 3 Zrotation Xrotation Yrotation
							JOINT RightWrist
							{
OFFSET 0 -3.705100 0.000000
CHANNELS 3 Zrotation Xrotation Yrotation
								JOINT rhand
								{
									OFFSET 0 0 0
CHANNELS 3 Zrotation Xrotation Yrotation
									JOINT RFingers
									{
OFFSET 0 -0.449140 0.000000
CHANNELS 3 Zrotation Xrotation Yrotation
										End Site
										{
OFFSET 0 -0.362110 0.000000
										}
									}
								}
								JOINT RThumb
								{
OFFSET 0 0.000000 0.000000
CHANNELS 3 Zrotation Xrotation Yrotation
									End Site
									{
OFFSET 0 -0.367630 0.367630
									}
								}
							}
						}
					}
				}
			}
		}
	}
}
MOTION
Frames: 6
Frame Time: 0.008333333333333333
-0.870261 18.712952 5.623839 -2.683395 0.467198 -0.143568 0.000000 0.000000 0.000000 -10.799406 -6.067246 -1.929694 1.264906 7.129015 20.098045 1.303159 4.361903 -23.532948 8.553713 -16.511793 -54.533472 0.000000 0.000000 0.000000 16.690092 -6.772769 6.571215 0.000000 0.000000 0.000000 -0.604164 -2.674958 -15.896261 -0.048661 1.423366 -3.914408 1.127530 0.278714 6.293195 0.822283 0.492345 -0.608161 0.168565 0.228123 -4.157383 -1.207166 -3.024708 -18.882980 3.660327 -4.645389 18.326281 0.836728 -1.856702 8.981092 0.000000 0.000000 0.000000 6.000923 -35.686440 -64.046438 98.579088 -59.720042 67.422767 28.633657 -50.190244 10.436540 0.000000 0.000000 0.000000 -7.125000 0.000000 0.000000 1.115442 18.129068 0.713082 0.000000 0.000000 0.000000 -34.926916 -33.284955 38.612407 -107.947184 -58.747182 -75.477368 24.072571 -68.366405 55.867936 0.000000 0.000000 0.000000 7.125000 0.000000 0.000000 91.704836 64.069156 -62.823493
-0.865974 18.714672 5.603530 -2.619601 -0.225763 -0.013038 0.000000 0.000000 0.000000 -10.908732 -5.937978 -1.959384 1.256534 7.106179 20.030330 1.327711 4.685289 -23.907773 8.488875 -16.467290 -54.304972 0.000000 0.000000 0.000000 16.647556 -6.049223 6.472286 0.000000 0.000000 0.000000 -0.588246 -2.796580 -15.772934 -0.059356 1.571250 -4.322203 1.063017 0.435701 6.335763 0.813525 0.697149 -0.620510 0.175364 0.330839 -4.193837 -1.372478 -3.003665 -18.687579 3.798251 -4.609354 18.509456 0.917694 -1.836217 9.015954 0.000000 0.000000 0.000000 5.816031 -35.315854 -63.779936 98.322122 -59.736718 67.200760 28.771952 -50.497736 10.470484 0.000000 0.000000 0.000000 -7.125000 0.000000 0.000000 1.209904 18.075599 0.775006 0.000000 0.000000 0.000000 -30.670598 -34.461783 37.933395 -107.283743 -58.839626 -74.909692 12.813483 -57.181691 56.450356 0.000000 0.000000 0.000000 7.125000 0.000000 0.000000 87.720868 67.784547 -63.465763
-0.860179 18.718710 5.585271 -2.458782 -0.835868 0.168958 0.000000 0.000000 0.000000 -11.124023 -5.785162 -2.044291 1.242238 7.067176 19.914514 1.338010 5.019225 -24.178000 8.481979 -16.462517 -54.280670 0.000000 0.000000 0.000000 16.493499 -5.398270 6.326359 0.000000 0.000000 0.000000 -0.579840 -2.884163 -15.720467 -0.064698 1.641388 -4.515524 0.978592 0.621943 6.342387 0.708085 0.935104 -0.661889 0.090062 0.449250 -4.238953 -1.514476 -3.043934 -18.616873 3.975060 -4.681521 18.853512 0.992142 -1.856039 9.132576 0.000000 0.000000 0.000000 5.167536 -35.140938 -63.692671 98.443881 -59.728836 67.305961 28.984514 -50.227690 10.906929 0.000000 0.000000 0.000000 -7.125000 0.000000 0.000000 1.323348 17.558664 0.862822 0.000000 0.000000 0.000000 -27.065483 -35.267920 38.830923 -104.021127 -59.238821 -72.111200 -0.922614 -39.348580 57.025953 0.000000 0.000000 0.000000 7.125000 0.000000 0.000000 84.455905 72.459703 -65.857182
-0.853476 18.723765 5.565204 -2.466700 -1.213444 0.309474 0.000000 0.000000 0.000000 -11.140957 -5.716568 -2.160819 1.235147 7.047788 19.856965 1.334374 5.267922 -24.293169 8.484772 -16.464495 -54.290552 0.000000 0.000000 0.000000 16.500658 -4.989887 6.177480 0.000000 0.000000 0.000000 -0.575682 -2.909359 -15.684987 -0.058440 1.558843 -4.287906 1.174145 0.744394 6.425910 0.523765 1.107108 -0.657989 -0.228363 0.527603 -4.273906 -1.405367 -3.080945 -18.569540 4.157154 -4.818864 19.103702 1.018427 -1.888266 9.217940 0.000000 0.000000 0.000000 4.651400 -35.152892 -63.874823 98.498843 -59.725306 67.353455 29.163110 -49.961648 11.641009 0.000000 0.000000 0.000000 -7.125000 0.000000 0.000000 1.384889 16.707752 0.928392 0.000000 0.000000 0.000000 -26.089315 -35.458655 40.281875 -100.618382 -59.569129 -69.182484 2.778229 -39.660248 60.051741 0.000000 0.000000 0.000000 7.125000 0.000000 0.000000 94.256041 71.271731 -74.772949
-0.849838 18.728086 5.539202 -2.444129 -1.299306 0.418726 0.000000 0.000000 0.000000 -11.152741 -5.680965 -2.405979 1.239711 7.060217 19.893966 1.311933 5.368212 -24.175213 8.515807 -16.485841 -54.400004 0.000000 0.000000 0.000000 16.471483 -4.870961 5.981174 0.000000 0.000000 0.000000 -0.570249 -2.898230 -15.612538 -0.052161 1.473258 -4.051936 0.956010 0.766353 6.668051 0.525877 1.121510 -0.569864 -0.108124 0.539777 -4.322840 -1.208375 -3.055632 -18.826699 4.248300 -4.871358 19.301424 1.007137 -1.880174 9.333283 0.000000 0.000000 0.000000 4.218473 -35.408485 -64.122960 98.118146 -59.749294 67.024625 28.617656 -48.965003 12.290347 0.000000 0.000000 0.000000 -7.125000 0.000000 0.000000 0.951299 16.043216 0.651020 0.000000 0.000000 0.000000 -26.764612 -34.504838 42.253142 -100.808271 -59.553781 -69.346184 6.073160 -45.805022 62.097656 0.000000 0.000000 0.000000 7.125000 0.000000 0.000000 91.074819 5.228052 3.890613
-0.850754 18.730672 5.506590 -2.512615 -1.207154 0.435440 0.000000 0.000000 0.000000 -11.052649 -5.731909 -2.604123 1.249388 7.086729 19.972551 1.301821 5.339887 -24.078510 8.533799 -16.498181 -54.463451 0.000000 0.000000 0.000000 16.554890 -4.947774 5.814095 0.000000 0.000000 0.000000 -0.559866 -2.918408 -15.496963 -0.044421 1.359640 -3.739008 0.673390 0.699442 7.045314 0.693993 1.019699 -0.424502 0.230889 0.498109 -4.394455 -1.237907 -2.977274 -18.777966 4.449672 -4.798088 19.254551 1.091935 -1.827039 9.312873 0.000000 0.000000 0.000000 3.904901 -35.645944 -64.174489 96.567824 -59.835258 65.684667 27.265209 -46.365068 12.812070 0.000000 0.000000 0.000000 -7.125000 0.000000 0.000000 -0.022831 15.629176 -0.016595 0.000000 0.000000 0.000000 -26.412318 -33.644140 44.380450 -101.044210 -59.533902 -69.549638 5.877534 -45.742407 61.548704 0.000000 0.000000 0.000000 7.125000 0.000000 0.000000 98.894967 70.186713 -78.630400
